<?xml version="1.0" encoding="UTF-8"?>
<svg version="1.1" xmlns="http://www.w3.org/2000/svg" viewBox="0 0 300 300">
<circle cx="150" cy="150" r="150" fill="#FE4300"/>
<path d="M0 0 C5.08617453 -0.12464234 10.17143856 -0.21482392 15.25878906 -0.2746582 C16.9851838 -0.29962938 18.71147471 -0.33361907 20.4375 -0.37719727 C39.25695092 -0.84005992 39.25695092 -0.84005992 47 5 C52.22483662 10.22483662 53.28544798 16.0169007 54.25 23.125 C55.97645932 34.972738 58.69321902 46.59580449 61.38330078 58.25537109 C61.58681152 59.16109863 61.79032227 60.06682617 62 61 C62.19062012 61.84385254 62.38124023 62.68770508 62.57763672 63.55712891 C63.00539734 66.03121722 63.09992525 68.30500802 63.0625 70.8125 C63.05347656 71.60269531 63.04445313 72.39289063 63.03515625 73.20703125 C63.02355469 73.79871094 63.01195312 74.39039063 63 75 C59.81321064 75.17591619 56.6276836 75.28136778 53.4375 75.375 C52.54224609 75.42527344 51.64699219 75.47554688 50.72460938 75.52734375 C45.91641525 75.63301835 42.78304407 75.37405768 38.96484375 72.2890625 C36.41563907 69.73872835 34.95875709 67.56345494 34.125 64 C33.92132812 63.195625 33.71765625 62.39125 33.5078125 61.5625 C32.944453 58.71970131 32.47644172 55.85865031 32 53 C27.05 53 22.1 53 17 53 C16.896875 54.32 16.79375 55.64 16.6875 57 C15.99361492 63.03584963 14.94159645 68.10694346 10.5 72.4375 C7.06766855 74.58270715 4.5152069 75.12426313 0.55078125 75.09765625 C-0.29677734 75.09443359 -1.14433594 75.09121094 -2.01757812 75.08789062 C-3.33918945 75.07532227 -3.33918945 75.07532227 -4.6875 75.0625 C-5.58017578 75.05798828 -6.47285156 75.05347656 -7.39257812 75.04882812 C-9.59511987 75.03704983 -11.79752599 75.02060164 -14 75 C-13.3335703 67.3766944 -11.79855743 60.08505205 -10.125 52.625 C-8.15849813 43.68038194 -6.37321303 34.77349679 -5.05004883 25.7121582 C-3.76487343 17.05902723 -1.86760109 8.54243465 0 0 Z " fill="#FFFFFF" transform="translate(40,111)"/>
<path d="M0 0 C12.21 0 24.42 0 37 0 C44 14 44 14 47 21 C48.294174 18.43873936 49.58540784 15.87606642 50.875 13.3125 C51.23980469 12.59126953 51.60460937 11.87003906 51.98046875 11.12695312 C52.33496094 10.42119141 52.68945312 9.71542969 53.0546875 8.98828125 C53.37937012 8.34415283 53.70405273 7.70002441 54.03857422 7.03637695 C55.12867049 4.72746557 56.07188125 2.3780786 57 0 C61.16642697 -0.11703447 65.3324259 -0.18753101 69.5 -0.25 C70.67304687 -0.28351563 71.84609375 -0.31703125 73.0546875 -0.3515625 C85.84270794 -0.49524812 85.84270794 -0.49524812 91 4 C94.38439144 8.36187342 95.49696008 11.14063012 95.45410156 16.64794922 C95.45379944 17.94884491 95.45349731 19.2497406 95.45318604 20.59005737 C95.43276397 21.99494042 95.41190006 23.39981711 95.390625 24.8046875 C95.38315695 26.25342017 95.37746668 27.702163 95.37347412 29.15090942 C95.35826185 32.94873347 95.31901943 36.74593757 95.2746582 40.54351807 C95.23360944 44.42476009 95.21544272 48.30610309 95.1953125 52.1875 C95.15251971 59.79194812 95.08432337 67.39588692 95 75 C91.62529496 75.11689626 88.2511157 75.18747934 84.875 75.25 C83.92367187 75.28351563 82.97234375 75.31703125 81.9921875 75.3515625 C75.96556097 75.43526565 72.58121001 75.02492351 68 71 C63.96107132 65.54012626 64.44700323 59.15032794 64.3125 52.625 C64.27833984 51.50738281 64.24417969 50.38976562 64.20898438 49.23828125 C64.12683927 46.49228778 64.05757872 43.74660018 64 41 C63.5153125 41.85980469 63.030625 42.71960938 62.53125 43.60546875 C57.86228029 51.85132018 53.01999032 59.96267507 48 68 C44.49916879 64.85003161 42.29050953 61.34424326 40.0625 57.25 C37.19282139 52.05122351 34.15535874 47.04857399 31 42 C30.67 52.89 30.34 63.78 30 75 C24.988125 75.12375 24.988125 75.12375 19.875 75.25 C18.83327637 75.28641602 17.79155273 75.32283203 16.71826172 75.36035156 C10.93676489 75.42929805 7.544179 74.9354572 3 71 C2.46030075 70.59597458 1.9206015 70.19194916 1.36454773 69.77568054 C-0.71644138 67.06769767 -0.35929439 64.79275466 -0.34057617 61.41723633 C-0.34101425 60.75355545 -0.34145233 60.08987457 -0.34190369 59.40608215 C-0.33981519 57.21443161 -0.31648268 55.02354799 -0.29296875 52.83203125 C-0.28737298 51.3117464 -0.28310279 49.79145614 -0.28010559 48.27116394 C-0.26865524 44.27122035 -0.23918672 40.27160394 -0.20599365 36.27178955 C-0.16989891 31.4719036 -0.15613249 26.6719082 -0.13863373 21.87192535 C-0.10954915 14.58105606 -0.05206412 7.29090457 0 0 Z " fill="#FFFFFF" transform="translate(111,111)"/>
<path d="M0 0 C1.06079773 0.00022659 2.12159546 0.00045319 3.21453857 0.00068665 C4.92253632 0.02391243 4.92253632 0.02391243 6.66503906 0.04760742 C7.83576965 0.05185226 9.00650024 0.05609711 10.21270752 0.06047058 C13.95226022 0.07726442 17.69127421 0.11491913 21.43066406 0.15307617 C23.96581253 0.16812204 26.50096944 0.18181062 29.03613281 0.1940918 C35.25116039 0.22717033 41.46587374 0.27737734 47.68066406 0.34057617 C50.28378019 29.03092064 50.28378019 29.03092064 44.51660156 36.37573242 C41.51831626 39.37364364 38.24111105 41.88214096 34.62524414 44.09326172 C32.1830919 45.65973451 29.94625296 47.52810505 27.68066406 49.34057617 C34.28066406 49.67057617 40.88066406 50.00057617 47.68066406 50.34057617 C47.76316406 52.85682617 47.84566406 55.37307617 47.93066406 57.96557617 C47.96708008 58.74626465 48.00349609 59.52695312 48.04101562 60.33129883 C48.12168244 65.45624344 47.07106397 68.29817628 43.68066406 72.34057617 C40.55261355 75.18827058 38.56178941 75.71115564 34.36132812 75.68115234 C33.3005304 75.68092575 32.23973267 75.68069916 31.14678955 75.6804657 C30.00812439 75.66498184 28.86945923 75.64949799 27.69628906 75.63354492 C26.52555847 75.62930008 25.35482788 75.62505524 24.14862061 75.62068176 C20.40906791 75.60388792 16.67005391 75.56623321 12.93066406 75.52807617 C10.39551559 75.5130303 7.86035868 75.49934173 5.32519531 75.48706055 C-0.88983227 75.45398202 -7.10454562 75.403775 -13.31933594 75.34057617 C-13.41208514 72.12527032 -13.50450706 68.90996341 -13.59454346 65.69458008 C-13.65019354 63.82419282 -13.71018352 61.95387412 -13.7868042 60.08422852 C-14.08025533 52.87665695 -14.03399006 47.54715234 -9.06152344 42.03100586 C-8.48660156 41.47316406 -7.91167969 40.91532227 -7.31933594 40.34057617 C-6.77019531 39.78015625 -6.22105469 39.21973633 -5.65527344 38.64233398 C-4.02183968 37.03099963 -2.34371254 35.49297477 -0.63183594 33.96557617 C-0.06400391 33.44608398 0.50382813 32.9265918 1.08886719 32.39135742 C3.53448711 30.17223688 5.92846582 28.175375 8.68066406 26.34057617 C1.42066406 26.01057617 -5.83933594 25.68057617 -13.31933594 25.34057617 C-13.44308594 21.56620117 -13.44308594 21.56620117 -13.56933594 17.71557617 C-13.60575195 16.9348877 -13.64216797 16.15419922 -13.6796875 15.34985352 C-13.76035431 10.2249089 -12.70973584 7.38297606 -9.31933594 3.34057617 C-6.19128542 0.49288176 -4.20046129 -0.03000329 0 0 Z " fill="#FFFFFF" transform="translate(226,111)"/>
</svg>
